/* XPM */
static char *collectible[] = {
/* columns rows colors chars-per-pixel */
"32 32 79 1 ",
"  c None",
". c #001500",
"X c #2B3200",
"o c #303400",
"O c #3C0D37",
"+ c #3D003E",
"@ c #262430",
"# c #563C00",
"$ c #533E3A",
"% c #3E4D00",
"& c #1F4536",
"* c #2D4035",
"= c #726C0E",
"- c #7A711E",
"; c #4C4133",
": c #63443F",
"> c #69533C",
", c #7C5D3E",
"< c #796B3D",
"1 c #6C4F43",
"2 c #825A46",
"3 c #8A6646",
"4 c #987247",
"5 c #966B52",
"6 c #A57F4B",
"7 c #AB7957",
"8 c #A77558",
"9 c #B1785A",
"0 c #948F25",
"q c #898E3B",
"w c #869136",
"e c #A7AE39",
"r c #A8AA3E",
"t c #B2A138",
"y c #C1B100",
"u c #C0B736",
"i c #BFC239",
"p c #DEE71A",
"a c #EBED00",
"s c #E3E82C",
"d c #E8F124",
"f c #A1834A",
"g c #A69249",
"h c #AF9A4C",
"j c #B79446",
"k c #BD875B",
"l c #B59258",
"z c #A48E70",
"x c #A7AB72",
"c c #C6965A",
"v c #C6A157",
"b c #C6AC53",
"n c #CEA259",
"m c #D7A959",
"M c #D9BB54",
"N c #DBBC54",
"B c #DDCC4A",
"V c #D4D24B",
"C c #DDD74A",
"Z c #DDC253",
"A c #E1D84A",
"S c #E1C35B",
"D c #E2E645",
"F c #E9E642",
"G c #E4E24C",
"H c #EDF743",
"J c #D0C563",
"K c #F5FA68",
"L c #84868A",
"P c #B4B781",
"I c #B8B8B3",
"U c #BEC0A6",
"Y c #D3C59C",
"T c #E6E58B",
"R c #FEFFB4",
"E c #FDFCBD",
"W c #EAEDD2",
"Q c #FFFFE3",
"! c #FFFFF7",
/* pixels */
"                                ",
"                                ",
"                                ",
"                                ",
"                                ",
"                                ",
"                                ",
"                                ",
"                                ",
"                                ",
"                                ",
"                                ",
"                                ",
"                   Xiw          ",
"                   LJBO         ",
"                oPxIU#          ",
"               *pQ!V-&          ",
"             .=grzYKj           ",
"            %WEy+usFn;          ",
"            0RTtq<bv7           ",
"            fadlheC91           ",
"            ,SGDHHAk5           ",
"             6mNZNc8$           ",
"              >342:@            ",
"                                ",
"                                ",
"                                ",
"                                ",
"                                ",
"                                ",
"                                ",
"                                "
};
