/* XPM */
static char *exit_c[] = {
/* columns rows colors chars-per-pixel */
"32 32 200 2 ",
"   c None",
".  c black",
"X  c #000027",
"o  c #000029",
"O  c #00092A",
"+  c #161D2E",
"@  c #05172D",
"#  c #22222F",
"$  c #28262F",
"%  c #222230",
"&  c #292732",
"*  c #2B2C35",
"=  c #232E39",
"-  c #352B32",
";  c #2C363D",
":  c #37252B",
">  c #43373B",
",  c #503E3C",
"<  c #614A3F",
"1  c #003B48",
"2  c #003B58",
"3  c #1C3847",
"4  c #2B3D44",
"5  c #233848",
"6  c #373D41",
"7  c #004D5C",
"8  c #29414A",
"9  c #3A4A4D",
"0  c #384447",
"q  c #244A52",
"w  c #2B4A53",
"e  c #324D56",
"r  c #3D4C50",
"t  c #2E5059",
"y  c #345157",
"u  c #3D5355",
"i  c #345359",
"p  c #3A5459",
"a  c #37595D",
"s  c #385860",
"d  c #3B646A",
"f  c #444E4F",
"g  c #5A4B46",
"h  c #56584A",
"j  c #415557",
"k  c #435359",
"l  c #445B5D",
"z  c #4A5857",
"x  c #634F47",
"c  c #61584B",
"v  c #7B5B45",
"b  c #725844",
"n  c #645C58",
"m  c #5E624A",
"M  c #4E655C",
"N  c #55625B",
"B  c #6D6F5A",
"V  c #7E795B",
"C  c #6A644B",
"Z  c #446466",
"A  c #4B6463",
"S  c #4C6768",
"D  c #45696D",
"F  c #4C6A6C",
"G  c #52706F",
"H  c #4F6F74",
"J  c #4E767A",
"K  c #4C787B",
"L  c #4E7173",
"P  c #51797A",
"I  c #587B7C",
"U  c #6E7566",
"Y  c #7F7F66",
"T  c #617E79",
"R  c #7B7D70",
"E  c #896747",
"W  c #936B4D",
"Q  c #986D4C",
"!  c #8F704C",
"~  c #9B724E",
"^  c #94744E",
"/  c #8B6550",
"(  c #946C53",
")  c #807D5E",
"_  c #9B7452",
"`  c #9A7753",
"'  c #A97C4E",
"]  c #A4784A",
"[  c #A17954",
"{  c #867F67",
"}  c #64897F",
"|  c #728478",
" . c #75887B",
".. c #9E8B57",
"X. c #949653",
"o. c #AC8353",
"O. c #A58156",
"+. c #B28255",
"@. c #B78B58",
"#. c #B4925E",
"$. c #BCAC5A",
"%. c #B6B155",
"&. c #858367",
"*. c #93866A",
"=. c #9A986F",
"-. c #8C8C7B",
";. c #938E76",
":. c #8B9576",
">. c #999777",
",. c #A19D6E",
"<. c #A2A36A",
"1. c #AAA776",
"2. c #B1A973",
"3. c #CAC86A",
"4. c #CEC474",
"5. c #E1D57B",
"6. c #397883",
"7. c #4D7D82",
"8. c #547D82",
"9. c #4A8388",
"0. c #528486",
"q. c #5B8484",
"w. c #5D8789",
"e. c #5C8C8D",
"r. c #54878D",
"t. c #488B95",
"y. c #5D8C91",
"u. c #538F92",
"i. c #48919A",
"p. c #5C9293",
"a. c #5E999C",
"s. c #569398",
"d. c #62898A",
"f. c #648784",
"g. c #738D84",
"h. c #69928E",
"j. c #79958A",
"k. c #628E90",
"l. c #649594",
"z. c #689293",
"x. c #649B9C",
"c. c #6A9C9C",
"v. c #679897",
"b. c #789B91",
"n. c #78A29B",
"m. c #5B9AA1",
"M. c #679EA2",
"N. c #6A9FA1",
"B. c #5CA1AB",
"V. c #67A1A4",
"C. c #6BA3A3",
"Z. c #66A4AB",
"A. c #74A2A3",
"S. c #7CA9A4",
"D. c #76A8AA",
"F. c #7CAEAB",
"G. c #75A9A7",
"H. c #7BB2AF",
"J. c #66AAB3",
"K. c #74AEB3",
"L. c #73B1B5",
"P. c #7CB3B4",
"I. c #75B2B9",
"U. c #7EB6B9",
"Y. c #839085",
"T. c #98A58A",
"R. c #83A69C",
"E. c #87A293",
"W. c #91B09C",
"Q. c #ABB387",
"!. c #BFB884",
"~. c #BBBE92",
"^. c #A9BD99",
"/. c #83ADAB",
"(. c #85ADA2",
"). c #8CB4AA",
"_. c #86B3AD",
"`. c #9BBCAE",
"'. c #92BAAA",
"]. c #83B6B5",
"[. c #8BB8B3",
"{. c #84BABB",
"}. c #8ABDBC",
"|. c #8FB6B0",
" X c #95BDB4",
".X c #B6C797",
"XX c #9DC7BC",
"oX c #9CC1B2",
"OX c #A5C8B8",
"+X c #C2C89B",
"@X c #DAD293",
"#X c #EDEC82",
"$X c #EAEA97",
"%X c #DBDCAD",
"&X c #E8E7A0",
"*X c #8CC1C2",
"=X c #8AC5C6",
"-X c #94C8C7",
";X c #A5CEC4",
":X c #A1D0C8",
/* pixels */
"                                                                ",
"                            = l A =                             ",
"                        d.N.C.l.C.r.:.T.                        ",
"                    . N.U.A.P.c.P.P.n.].N..                     ",
"                  d y e.OX~.Z.l.].}.e.}.h.y d                   ",
"                d b.U K n. .N.C.x.D.g.b.J S l.D                 ",
"                6.T.1.I.c.p P.[. .B.2.%XI.d.w.q.                ",
"              u k h p |./.u c.F.b.s.V Q.L.A * j u               ",
"            0 e R.!.z p.D.A.0.x.J v.D.c.p.A w.A.9 9             ",
"            A l ].^.@XC M.:X`.G u d.XX(.5 8.-X].j s             ",
"          6 r z m..X5.n 0.S.E.q.}./.q.t.X.+XK.c.p ) h           ",
"          q 5 I e.e.h 9 l.V.7.L H.h.P 1.$.#X} y.P &.N           ",
"          &.B P.].U.8.P D.i.>.>.s.F./.'.| :.P.].].w S ;         ",
"        2 4.,.J.-X;Xd.F }.OX`.g.D _.S.V.F r.;X;X].F f l         ",
"        8 m T p.S.R.A q p.).F.7.z t.m.u.y M n.W.E.7.3 5         ",
"        * e N.P.C.a.y E ;.-.;.#.#.*.-.*.^ y z.&.+Xm.{ c         ",
"        u H R ).I.f.y ` ' ' o.o.O.o.] o.[ 2 2.&Xb.d =.Y         ",
"        k.}.$X%.Y.A a E W _ W Q Q Q W W E 7 { 3.M z.*Xw..       ",
"      * x.G.3...<.|.f.: > - # & * $ & > - } OXD.J XX Xx.;       ",
"      4 x.a.y.k s._.0.g ( g o + + O , / x 9.).c.w e.x.x.8       ",
"      ; F.L.`.2.9.x.0.x +.v o # # o v +.b j.i.1.Q.Z.].D.4       ",
"      A C. XXXj.N.P.0.g +.E o # # X ! @.E .XJ.=.Q.*X XC.A       ",
"      u p.c.l.S.-X-X*XF @.` X % # o ^ +.A ].-X*XA.l.c.p.u       ",
"        . x.r.| `.A.c.A +.~ o # # o ~ ' A C.A.oX| r.x..         ",
"              t a.x.P q _ ~ o   % o [ _ 1 K x.a.w %             ",
"                        < E #     @ b v       p                 ",
"                                                                ",
"                                                                ",
"                                                                ",
"                                                                ",
"                                                                ",
"                                                                "
};
