/* XPM */
static char *exit_o[] = {
/* columns rows colors chars-per-pixel */
"32 32 203 2 ",
"   c None",
".  c black",
"X  c #2B2E36",
"o  c #232E39",
"O  c #202230",
"+  c #2C363D",
"@  c #3C333A",
"#  c #40362B",
"$  c #403531",
"%  c #6C7037",
"&  c #666B2B",
"*  c #003B48",
"=  c #003B58",
"-  c #1C3847",
";  c #2B3D44",
":  c #233848",
">  c #373D41",
",  c #004C5C",
"<  c #29414A",
"1  c #3A4A4D",
"2  c #384447",
"3  c #2A4B53",
"4  c #254851",
"5  c #324D56",
"6  c #3D4C50",
"7  c #2F535C",
"8  c #345157",
"9  c #3D5355",
"0  c #345359",
"q  c #3A5459",
"w  c #3D595A",
"e  c #385860",
"r  c #3B646A",
"t  c #444E4F",
"y  c #56584A",
"u  c #445B5D",
"i  c #455557",
"p  c #564B4A",
"a  c #624A42",
"s  c #6F5344",
"d  c #64554A",
"f  c #7E5250",
"g  c #705C50",
"h  c #5E624A",
"j  c #4E655C",
"k  c #55625B",
"l  c #6D6F5A",
"z  c #746F53",
"x  c #4D5E62",
"c  c #456466",
"v  c #4B6463",
"b  c #4C6669",
"n  c #4C6B6C",
"m  c #45696D",
"M  c #52706F",
"N  c #4F6F74",
"B  c #4E767A",
"V  c #4C787B",
"C  c #4E7173",
"Z  c #51797A",
"A  c #587B7C",
"S  c #7F7F66",
"D  c #617E79",
"F  c #7B7D70",
"G  c #6E7566",
"H  c #895A56",
"J  c #8B6A47",
"K  c #98784C",
"L  c #8F6350",
"P  c #807D5E",
"I  c #9D7654",
"U  c #9A6E53",
"Y  c #A67A4D",
"T  c #A67E55",
"R  c #867F67",
"E  c #64887F",
"W  c #728478",
"Q  c #75887B",
"!  c #B2B800",
"~  c #9F9D3E",
"^  c #A19D32",
"/  c #A8A429",
"(  c #BDC33A",
")  c #D3DB3F",
"_  c #E4E837",
"`  c #E3EC2C",
"'  c #9E8946",
"]  c #999155",
"[  c #AE8254",
"{  c #B48955",
"}  c #B6925D",
"|  c #AB9349",
" . c #B6AC4C",
".. c #B4B245",
"X. c #B9AF58",
"o. c #858367",
"O. c #94876A",
"+. c #8C8C7B",
"@. c #948F76",
"#. c #8B9576",
"$. c #999777",
"%. c #9A986F",
"&. c #A19D6E",
"*. c #AAA776",
"=. c #B1A973",
"-. c #A2A36A",
";. c #C0BC4E",
":. c #DCB858",
">. c #BAC14E",
",. c #D8DB43",
"<. c #CEC650",
"1. c #E0C356",
"2. c #DCE243",
"3. c #E7E947",
"4. c #EFF757",
"5. c #CAC86A",
"6. c #CEC474",
"7. c #E1D57B",
"8. c #F4FB73",
"9. c #397883",
"0. c #4D7D82",
"q. c #547C83",
"w. c #498388",
"e. c #538385",
"r. c #5B8484",
"t. c #5D8789",
"y. c #5C8C8D",
"u. c #54878D",
"i. c #488B95",
"p. c #5D8C91",
"a. c #538F92",
"s. c #48919A",
"d. c #5C9293",
"f. c #5E999C",
"g. c #569398",
"h. c #638684",
"j. c #62898A",
"k. c #738D84",
"l. c #69928E",
"z. c #79958A",
"x. c #628E90",
"c. c #649594",
"v. c #689293",
"b. c #659B9C",
"n. c #6A9C9C",
"m. c #679897",
"M. c #789B91",
"N. c #78A29B",
"B. c #5B9AA1",
"V. c #6A9FA1",
"C. c #679EA2",
"Z. c #5CA1AB",
"A. c #67A1A4",
"S. c #6BA3A3",
"D. c #66A4AB",
"F. c #74A2A3",
"G. c #7CA9A4",
"H. c #76A8AA",
"J. c #7CAEAB",
"K. c #75A9A7",
"L. c #7BB2AF",
"P. c #66AAB3",
"I. c #74AEB3",
"U. c #7CB3B4",
"Y. c #75B2B9",
"T. c #78B3B7",
"R. c #839085",
"E. c #98A58A",
"W. c #85A497",
"Q. c #91B09C",
"!. c #ABB387",
"~. c #BBBE92",
"^. c #B4BB8F",
"/. c #83ADAB",
"(. c #85ADA2",
"). c #8CB4AA",
"_. c #86B3AD",
"`. c #9BBCAE",
"'. c #92BAAA",
"]. c #83B6B5",
"[. c #8BB8B3",
"{. c #84BABB",
"}. c #8ABDBC",
"|. c #8FB6B0",
" X c #95BDB4",
".X c #B6C897",
"XX c #9DC7BC",
"oX c #9CC1B2",
"OX c #A5C8B8",
"+X c #C2C89B",
"@X c #DAD293",
"#X c #EBEE82",
"$X c #EAEA97",
"%X c #DBDCAD",
"&X c #F5FAA4",
"*X c #E8E7A0",
"=X c #8BC3C4",
"-X c #94C8C7",
";X c #A5CEC4",
":X c #A1D0C8",
">X c #F6F8D3",
",X c #FFFFE6",
"<X c #FBFBF1",
/* pixels */
"                                                                ",
"                            o u v o                             ",
"                        j.V.S.c.S.u.#.E.                        ",
"                    . V.U.F.U.n.U.U.n.].V..                     ",
"                  r 8 y.OX~.D.c.].}.y.}.l.8 r                   ",
"                r M.G V N.Q V.S.b.H.k.M.B b c.m                 ",
"                9.E.*.Y.n.q U.[.Q Z.=.%XY.j.t.r.                ",
"              9 i y w |./.9 n.J.M.g.S !.Y.v X i 9               ",
"            2 5 W.^.i d.H.F.e.b.B m.H.n.d.v t.F.1 1             ",
"            v u ].^.@Xg C.:X`.M 9 j.XX(.: q.-X].i e             ",
"          > 6 i B..X7.g e.G.W.r.}./.r.i.] +XI.n.q P y           ",
"          4 : A y.y.y 1 c.A.0.C L.l.Z *.X.#XE p.Z o.k           ",
"          o.l U.].U.q.Z H.s.$.$.g.J./.'.W #.U.].].3 b +         ",
"        = 6.&.P.-X;Xj.n }.OX`.k.m _.G.A.n u.;X;X].n t u         ",
"        < h D d.G.W.v 4 d.).J.0.i i.B.a.8 j N.Q.W.0.- :         ",
"        X 5 C.U.S.f.8 J @.+.@.} } O.+.O.K 8 v.o.+XB.R d         ",
"        9 N F ).Y.h.8 I Y Y [ [ T [ Y T T = =.*XM.r %.S         ",
"        x.}.$XX.R.v 7 J K ' ' L ' ' K K J , R 5.j v.=Xt..       ",
"      X b.K.5.] -.|.h.# @ % ( ! >.<.& @ $ E OXH.B XX Xb.+       ",
"      ; b.f.p.i g._.e.d H ^ 8.,X&X4.~ f d w.).n.3 y.b.b.<       ",
"      + J.Y.`.=.w.b.e.a { / #X<X>X_ ..{ s z.s.*.!.D.].H.;       ",
"      v S. XXXz.V.U.e.p [ ..` 4.&X2...} J .XP.%.!.=X XS.v       ",
"      9 d.n.c.G.-X-X=Xb { ;.,.3._ 2. .[ x ].-X=XF.c.n.d.9       ",
"        . b.u.W `.F.n.v [  .,.1.:.) | Y v S.F.oXW u.b..         ",
"              7 f.b.Z 3 U Y 3.1.:.<.K I * V b.f.3 O             ",
"                        a J (     | s f       q                 ",
"                                                                ",
"                                                                ",
"                                                                ",
"                                                                ",
"                                                                ",
"                                                                "
};
