/* XPM */
static char *floor[] = {
/* columns rows colors chars-per-pixel */
"32 32 61 1 ",
"  c #6B9C5F",
". c #7EAC5E",
"X c #6DA367",
"o c #6FA06A",
"O c #79A664",
"+ c #77A863",
"@ c #7CA962",
"# c #74A169",
"$ c #7FA369",
"% c #939555",
"& c #95B74F",
"* c #97B84E",
"= c #84AE5C",
"- c #8BAE5D",
"; c #92AE5E",
": c #9AAE5F",
"> c #87B157",
", c #8DB356",
"< c #86B059",
"1 c #8BB159",
"2 c #93B553",
"3 c #9BB654",
"4 c #9CB851",
"5 c #94B15B",
"6 c #9CB25B",
"7 c #A2BB4C",
"8 c #A8BB4F",
"9 c #A4B756",
"0 c #AAB757",
"q c #A5B952",
"w c #ABBA53",
"e c #AAB45E",
"r c #B2B357",
"t c #B0B956",
"y c #B8BD51",
"u c #B4B65D",
"i c #B9B75E",
"p c #B4B85A",
"a c #BCBB58",
"s c #839F6D",
"d c #8A9E6E",
"f c #80A567",
"g c #8DA766",
"h c #84AB62",
"j c #8DAA61",
"k c #80A16B",
"l c #8DA26B",
"z c #91A767",
"x c #96A767",
"c c #90AC60",
"v c #98A866",
"b c #98A768",
"n c #9EA869",
"m c #9EB060",
"M c #A3AC65",
"N c #A8AE63",
"B c #A1A76A",
"V c #A5B060",
"C c #A8B064",
"Z c #B2B361",
"A c #C0BC58",
/* pixels */
"3;jj==1==,,513jj===1==,15,3jc=<=",
"rCvee2=-33VMMuMvee2=536VvCuvve62",
"h@j2e4*3wwq35hh-2e**qwwq3;@h-3e*",
"2216eeq*qww32221eee74qwq22*21eew",
"22121h-@=2***2212=--@=2**22213=-",
"MxMtA3*9w2-hxMbMta240w2jhvvnVyp2",
"uuyeCaqwuvNNCepteeyqtevNNueptCut",
"@==.=37qww*3=+==.-47qww*6.@===17",
"2213*21=2*q63211**,1=**963212**1",
"-@@@##+o.qAa6=@.@#++o=wAt5=@.O#+",
"2-flBbZNewtw*,h$xbnZNewpq*1hkbbM",
"779ttttyAtwwq779ttttyAttw7770ytt",
"=2tq22*4qq3-==3tq22*4qq3===qt422",
"1-6;==,==,,,,1;e-==2=<,1,1-;e-==",
"pNlM61=-22evMaMxM51=125MvVabcV51",
"jhc3e426qe96ejj53e*23we96mhj59e*",
",,=5ee7*wtw2,,,=6ew7*wtq2,,<-6eq",
"2*,3-j;h=24****,3-c;@=24****23h;",
"vgcwt2269311jcgvwp,26921-ccx:te,",
"aZypuaqtuvMMCuuyuitqtecMMZuayuat",
"@-,==97q0e7w5@1,=-q7qeww9-@51@1q",
"21=2*221**3152112*221**312,=1**2",
"5===hO+X.3aae1===hO+X=wAp61===@ ",
"1@OsldMb:wpw&-@#sdxMb6waq2=@#ld%",
"7*6uyataAtww7*46pyayAAwww7*3eaya",
"13ww23*7www5-14tq23*qww9--,qtq3&",
"=-e6<121<2,,1=5e5<12=12>,<=6e111",
"tMlv;-==22:vvtvgv--h-22:cepxgv-=",
"vc6qe4269eeeevc6qe*169eeeCcc6we*",
"==.5ew77wt82<==.5eq77tt72==.=6e7",
"*7235v6=123**7*26;65=139**7*26c6",
"jjj4e=,152&*;gjjqe1,152**jjj-w61"
};
