/* XPM */
static char *player[] = {
/* columns rows colors chars-per-pixel */
"32 32 187 2 ",
"   c None",
".  c #000001",
"X  c #00001B",
"o  c #060816",
"O  c #15001A",
"+  c #0A111B",
"@  c #2F2616",
"#  c #000022",
"$  c #0C1727",
"%  c #171E30",
"&  c #151A2B",
"*  c #0C2035",
"=  c #1A253E",
"-  c #27262A",
";  c #2A2936",
":  c #3C3B3B",
">  c #584328",
",  c #605827",
"<  c #00004C",
"1  c #0D2A4F",
"2  c #00344D",
"3  c #262C46",
"4  c #27314C",
"5  c #2B344F",
"6  c #2C3654",
"7  c #273955",
"8  c #333859",
"9  c #00326E",
"0  c #083B7B",
"q  c #353361",
"w  c #3D4A4B",
"e  c #2E4059",
"r  c #39445F",
"t  c #00476E",
"y  c #0E5062",
"u  c #004974",
"i  c #015A79",
"p  c #145879",
"a  c #3B456D",
"s  c #394567",
"d  c #2A5665",
"f  c #345664",
"g  c #3D4D76",
"h  c #4E4E47",
"j  c #504E45",
"k  c #5F5140",
"l  c #4D4359",
"z  c #505F59",
"x  c #625D4E",
"c  c #745F49",
"v  c #645F50",
"b  c #5E6059",
"n  c #71624B",
"m  c #6D6453",
"M  c #756B51",
"N  c #454B67",
"B  c #504D60",
"V  c #4D576D",
"C  c #505566",
"Z  c #474C79",
"A  c #43527C",
"S  c #49547D",
"D  c #4A6361",
"F  c #566B68",
"G  c #537272",
"H  c #6C647E",
"J  c #647E7C",
"K  c #7D7075",
"L  c #95794D",
"P  c #8C7556",
"I  c #937A55",
"U  c #877963",
"Y  c #937F68",
"T  c #6F8278",
"R  c #9D855A",
"E  c #8A8469",
"W  c #948B6D",
"Q  c #848877",
"!  c #9E9676",
"~  c #959177",
"^  c #B69568",
"/  c #BB9E72",
"(  c #A79D79",
")  c #B8A87E",
"_  c #C5A16F",
"`  c #CBA975",
"'  c #C4AB7D",
"]  c #CCAC7A",
"[  c #D1AF7C",
"{  c #D5B47B",
"}  c #3B5E82",
"|  c #19758B",
" . c #357183",
".. c #33739C",
"X. c #256A8A",
"o. c #4A5A86",
"O. c #4B5C8A",
"+. c #475B85",
"@. c #4B6587",
"#. c #51608B",
"$. c #556590",
"%. c #477695",
"&. c #487797",
"*. c #008BAC",
"=. c #1D96B2",
"-. c #2994AF",
";. c #46849E",
":. c #4A879F",
">. c #668184",
",. c #7B918D",
"<. c #4B89A5",
"1. c #468AA1",
"2. c #4691A7",
"3. c #4C92AA",
"4. c #479AAF",
"5. c #4A97AB",
"6. c #4A9AB1",
"7. c #449EB0",
"8. c #6CA0AB",
"9. c #7CA5A6",
"0. c #6BA7B3",
"q. c #71ADBA",
"w. c #85A08F",
"e. c #85A293",
"r. c #8EAF9F",
"t. c #80A399",
"y. c #9CA58C",
"u. c #B3A882",
"i. c #BCB188",
"p. c #AFAF93",
"a. c #B9B390",
"s. c #84A9AB",
"d. c #8CAFA0",
"f. c #9FA1A6",
"g. c #92B4A4",
"h. c #96B2AD",
"j. c #99B8A9",
"k. c #91B6B6",
"l. c #B1ABA7",
"z. c #A6BAA5",
"x. c #B4BCA4",
"c. c #C2B185",
"v. c #C3B68A",
"b. c #CAB889",
"n. c #D5B984",
"m. c #C5BB95",
"M. c #A1C3AD",
"N. c #ACCDB4",
"B. c #B1CFB3",
"V. c #B2D2B5",
"C. c #B9D4B4",
"Z. c #BDDBBA",
"A. c #DAC08D",
"S. c #D4C493",
"D. c #DBCE9E",
"F. c #D9C391",
"G. c #DED19F",
"H. c #E1C58E",
"J. c #E4CE99",
"K. c #E9D39C",
"L. c #E7D599",
"P. c #D0CFAD",
"I. c #DDD0A0",
"U. c #CEC7B6",
"Y. c #EDDEA9",
"T. c #EBD9A3",
"R. c #F1DFA8",
"E. c #CAE4BD",
"W. c #EDE1AD",
"Q. c #F5E6AE",
"!. c #F3E2A2",
"~. c #E9E1B2",
"^. c #F6E7B2",
"/. c #FBEBB2",
"(. c #FFF0B6",
"). c #96B4C3",
"_. c #BCCCCD",
"`. c #C9C9C9",
"'. c #C0C9D0",
"]. c #D2D3D5",
"[. c #C5E5C3",
"{. c #D4EDC2",
"}. c #D9F1C5",
"|. c #D7F4CB",
" X c #FFF6D5",
".X c #F9F8F5",
"XX c #F8F5E9",
/* pixels */
"                                                                ",
"                                                                ",
"                                                                ",
"                      7 %.%.+.                                  ",
"                    3 O.1.4.6.&.                                ",
"                    a <.7.2.&.6.%.                              ",
"                  + A &.<.4.2.%.3.                              ",
"                  6 O.Z 8 @.4.;.<.                              ",
"                + 4 o.o.7 X :.3.}                               ",
"              $ A s a O.N > p ..l I                 }.C.        ",
"              6 O.g N 9 R { K H ^ K.n.            E.[.g.        ",
"              5 O.8 g s M ) ) n.K.T.A.          }.|.B.d.        ",
"                A $.0 ! ' P m.W.Y.I./.]         {.}.V.t.        ",
"                4 S < ) n.] Y.Q.F.v /.'         [.E.N.F         ",
"                  - X c.` ] Q./.^.x G.U       E.N.Z.r.X         ",
"            C f.    b A.` F.i.( u.j : :       z.C.V.T           ",
"            W `.`.V , { ` J.m.E $ X h D.m   X r.V.M.w           ",
"            a.y.U..X].l.Y U ' K.Y.E v.H.c   z j.j.e.            ",
"            Q q.9.P. XXX.X'.L _ A.! c.{ P   w.g.j.F             ",
"            Q 0.*.h.!.L. X).R [ n.~ b.^ * - e.J g.w             ",
"            ~ 0.*.j.R.W.^._.w ^ n.Y.F.f y  .f D G               ",
"            ! ~.s.s.n.T.Q.h.t d n R G | ; f u a ; d d           ",
"            m /.J.m.x.m.Q.x.i @.X.t } g B L I r q ;. .          ",
"              D.Y.{ 9.=.,.T p Z O.#.o.O.1 k / @ = e             ",
"              W (.J.s.*.8.,.i S o.+.A 6 s g .                   ",
"                i.W.3.-.z.J 2 3 4 3 & + = 5                     ",
"                  v.1.k.W #           %                         ",
"                  . >.p..                                       ",
"                      O                                         ",
"                                                                ",
"                                                                ",
"                                                                "
};
