/* XPM */
static char *Tilemap_Elevation___cÃ_pia[] = {
/* columns rows colors chars-per-pixel */
"32 32 173 2 ",
"   c None",
".  c black",
"X  c #00000F",
"o  c #0B0011",
"O  c #090625",
"+  c #141128",
"@  c #191C2D",
"#  c #161C2E",
"$  c #1C202F",
"%  c #1C2633",
"&  c #232E3A",
"*  c #212D37",
"=  c #24313A",
"-  c #28363E",
";  c #2B3A42",
":  c #20404D",
">  c #304147",
",  c #33454B",
"<  c #38474B",
"1  c #3C4D4F",
"2  c #33484E",
"3  c #354E54",
"4  c #3A4E51",
"5  c #3E5154",
"6  c #3C5658",
"7  c #3C5A5E",
"8  c #2E5A64",
"9  c #3E5E63",
"0  c #435252",
"q  c #41575A",
"w  c #445B5C",
"e  c #4A5D5B",
"r  c #49605F",
"t  c #436063",
"y  c #4C6362",
"u  c #476B6F",
"i  c #4E6A6A",
"p  c #526967",
"a  c #526D6C",
"s  c #506664",
"d  c #53706F",
"f  c #46747B",
"g  c #4E7172",
"h  c #537574",
"j  c #567B7B",
"k  c #5A7D7C",
"l  c #61746B",
"z  c #6A7D73",
"x  c #5A827F",
"c  c #698178",
"v  c #808E7A",
"b  c #597C81",
"n  c #4F8285",
"m  c #558384",
"M  c #5B8484",
"N  c #5F8887",
"B  c #56878A",
"V  c #5E8C8C",
"C  c #5F908F",
"Z  c #4E8B90",
"A  c #578F95",
"S  c #5E8E92",
"D  c #569195",
"F  c #5F9393",
"G  c #56969A",
"H  c #5B979A",
"J  c #5D999C",
"K  c #618684",
"L  c #628D8D",
"P  c #61908F",
"I  c #76958D",
"U  c #629494",
"Y  c #699695",
"T  c #659897",
"R  c #6A9897",
"E  c #659798",
"W  c #659C9C",
"Q  c #699D9D",
"!  c #709C9C",
"~  c #6AA09F",
"^  c #7BA59C",
"/  c #72A19B",
"(  c #5F9DA2",
")  c #669EA1",
"_  c #6E9EA1",
"`  c #66A1A2",
"'  c #6BA3A3",
"]  c #6EA7AA",
"[  c #6BA8AB",
"{  c #72A5A6",
"}  c #79A7A4",
"|  c #71A7A8",
" . c #74AAAB",
".. c #7AADAD",
"X. c #7AAAA5",
"o. c #72AEB1",
"O. c #7AAFB1",
"+. c #77B1B1",
"@. c #7DB3B4",
"#. c #7CB7BA",
"$. c #7FB9BC",
"%. c #7DBCC3",
"&. c #889C89",
"*. c #819D90",
"=. c #95A187",
"-. c #84A79C",
";. c #83A89C",
":. c #8DAC9C",
">. c #90A996",
",. c #AFB894",
"<. c #A2B499",
"1. c #83ADA4",
"2. c #80AFAB",
"3. c #8AAFA8",
"4. c #8BB1A6",
"5. c #8DB6AD",
"6. c #95B6A4",
"7. c #9EB8A4",
"8. c #91B6A9",
"9. c #95BBAF",
"0. c #9EBDAB",
"q. c #81B6B7",
"w. c #8DBAB2",
"e. c #84BBBC",
"r. c #8ABEBD",
"t. c #92BBB3",
"y. c #A0BEAA",
"u. c #A8BDA3",
"i. c #9BC5BC",
"p. c #98C3BA",
"a. c #A6C3AE",
"s. c #ABC4AB",
"d. c #B4CAAC",
"f. c #A3C5B4",
"g. c #ADCAB5",
"h. c #A0C7BB",
"j. c #A3CABE",
"k. c #AACDBE",
"l. c #AAC7B2",
"z. c #B3CFB7",
"x. c #B8CEB2",
"c. c #AFD0BD",
"v. c #BBD2B5",
"b. c #B5D2BC",
"n. c #BDD6BB",
"m. c #C4D7B6",
"M. c #C3DABD",
"N. c #CBDDB9",
"B. c #C5D8B6",
"V. c #D3DFB3",
"C. c #D4E2B7",
"Z. c #84BFC2",
"A. c #88BFC0",
"S. c #86C1C5",
"D. c #8DC4C6",
"F. c #8EC5C6",
"G. c #8FC6C7",
"H. c #8DC4C5",
"J. c #8BC3C4",
"K. c #8EC7C8",
"L. c #91C7C7",
"P. c #91C6C5",
"I. c #99C7C1",
"U. c #97C8C4",
"Y. c #9BC9C3",
"T. c #90C7C8",
"R. c #91C9CA",
"E. c #A3CCC2",
"W. c #A9CFC2",
"Q. c #ACD1C3",
"!. c #AAD5C9",
"~. c #B1D2C1",
"^. c #BCD8C0",
/* pixels */
"      e K b 3 r.K.H.H.H.H.S.S.L.T :.N.L.S.S.Y.j.T r.r.| r.H.H.S.",
"    j _ H.T.+...+.H.H.H.E.k.b.i.( ^ d.v.v.h.5.1.` ..r.+...+.H.I.",
"  N ` t.Y.Z.T.H.Q T ..r.I.Y.I.r...m A w.w...) Z.H.H.H.H.H.H.H.I.",
"  k B ;.B.n.t.] ` +.H.H.H.H.H.H.H...r.H.H.Z.` H.H.H.H.H.H.H.H.H.",
"  h +.r.X.t.+.` H.H.H.H.H.S.S.H.r.` H.H.H.H.r...H.H.H.H.H.H.H.H.",
"  U H.H.H.#...| H.H.H.H.L.~.n.i...` r.H.H.H.H.` ..r.r.H.H.H.H.H.",
"  T r.H.H.H.H.| Q +.r.+...4.;.L ..H.H.H.A.r.Q ..H.H.+.` +.r.r...",
"< j ` r.H.H.r...V h U R Q ] S m ..H.S.S.H.H.H.r.H.H.+.U j M V Q ",
"= ; ..S.H.H.H.H.H.r.H.H.H.T.H.r.| r.E.j.Z.S.S.S.H.H.r.H.A...+.T.",
"< 2 I !.H.H.H.r.H.H.H.H.H.H.H.H.H.r.B.C.M.Q.E.E.L.H.K.H.H...T +.",
"w k p =.7...` r.H.H.H.H.H.H.H.H.H.#.] 5.7.7.6.6...| | +...| r.H.",
"1 T ) n 7 x g.K.Z.H.H.H.H.H.H.L.I.E.+.n B ) o.o.+.q.| M U H.H.H.",
"= i P T 7 m s.B.b.Y.Z.r.H.H.Y.m.C.Q...+.T.T.L.L.H.H.T.q.T +.H.H.",
"% < M m E A.o.5.y.1.T +.Z.p.B.B.v.u.K O.H.H.H.H.H.H.H.L.H.H r.H.",
"< y Q H.r.H.H.S.%.%.r...c &.p.L.r.) j i i.H.S.H.H.H.H.%.Y.s.j r.",
"# i L r.r.r.Y.E.W.^.x.j *.z.g.9.9.R a . ,.M.i.H.L.U.Y.E.c.C.c <.",
"@ M U M M R 8.s.s.u.l * +.r...H H ` U 4 5 v ^ ` ..4.l.b.~.;.= E ",
"- p a e M T H G G ( m i ` ~ T Q T T T i M D T T T H H ( ] U y T ",
"< j V M T ~ Q Q Q ` U a m F T T T T T a k ` Q T ) _ Q T T T h j ",
"> a j M U T T T T T h k } ! | ` T T ` M h U U U T T T T T T y M ",
"% y s h C U T T T T V e | r.+.` T ` U 6 U +.+.! U T T T T Q w u ",
"# ; w h U ` T T L L T 1 7 Z D H H B f ; h ......` T T T U V a 3 ",
"% i y i V T T U R ..k X z g.h.p.r.t.b.z < M U T T T T T T U y < ",
"9 T U o.o...` ` ` A f 6 0 9.l.g.w.p.l.t 9 L T H T T T T U f : ; ",
"4 B 1.M.k.L.Y.L.E.~.M.>.8 ( G H H ] ` 4 F T.E.i.r.#.o.#.O.3.:.5 ",
"< p a I ^ } 0.a.s.s.6.k M ` Q Q Q T U 0 V +.a.s.w.j.Q.b.M.N.7.t ",
"; a y m ) T H H H G H V M ` T T T T M y U T G H T / ;.^ ^ Q D a ",
"* i P L Q T T Q T Q Q P h U T T T T M a T T Q ~ T T H H H U M i ",
"* a h ! r.r...` +...+.` h T T T T T T h U T T F L R L T | ....a ",
"O q a a U ` ` T ` ` ` g w M k Q ` ` T w k T T T ` ..` T ..+.U w ",
"    w j L T ` ` T V h o + < V T T F 9 % y U ` ` ] ] ` ` ` V < + ",
"                                                  Q             "
};
